<svg width="204" height="56" viewBox="0 0 204 56" fill="none" xmlns="http://www.w3.org/2000/svg">
<path d="M195.794 56H7.83101C3.62065 56 0.3125 52.92 0.3125 49V7C0.3125 3.08 3.62065 0 7.83101 0H195.794C200.005 0 203.312 3.08 203.312 7V49C203.312 52.92 200.005 56 195.794 56Z" fill="white"/>
<path d="M96.7788 27.5468V27.4023H96.625V27.5468H96.7788Z" fill="black"/>
<path d="M102.704 23.2166C99.1494 23.2166 96.3357 25.7187 96.3357 29.1938C96.3357 32.5298 99.1494 35.1709 102.704 35.1709C106.258 35.1709 109.072 32.6689 109.072 29.1938C109.072 25.5797 106.258 23.2166 102.704 23.2166ZM102.704 32.6689C100.778 32.6689 99.1494 31.1398 99.1494 29.0547C99.1494 26.9697 100.778 25.4407 102.704 25.4407C104.629 25.4407 106.258 26.8307 106.258 29.0547C106.258 31.1398 104.629 32.6689 102.704 32.6689ZM88.931 23.2166C85.3768 23.2166 82.5631 25.7187 82.5631 29.1938C82.5631 32.5298 85.3768 35.1709 88.931 35.1709C92.4853 35.1709 95.299 32.6689 95.299 29.1938C95.299 25.5797 92.4853 23.2166 88.931 23.2166ZM88.931 32.6689C87.0058 32.6689 85.3768 31.1398 85.3768 29.0547C85.3768 26.9697 87.0058 25.4407 88.931 25.4407C90.8562 25.4407 92.4853 26.8307 92.4853 29.0547C92.4853 31.1398 90.8562 32.6689 88.931 32.6689ZM72.4929 25.0237V27.5258H78.8608C78.7127 28.9158 78.1203 30.0278 77.3799 30.7228C76.4913 31.5568 75.0104 32.5298 72.4929 32.5298C68.4944 32.5298 65.5326 29.6108 65.5326 25.8577C65.5326 22.1046 68.6425 19.1856 72.4929 19.1856C74.5661 19.1856 76.1951 20.0196 77.3799 20.9926L79.3051 19.1856C77.6761 17.7956 75.6028 16.6836 72.6409 16.6836C67.3096 16.6836 62.7188 20.8537 62.7188 25.8577C62.7188 30.8618 67.3096 35.0318 72.6409 35.0318C75.6028 35.0318 77.6761 34.1979 79.4532 32.3908C81.2302 30.7228 81.8226 28.3597 81.8226 26.5527C81.8226 25.9967 81.8226 25.4407 81.6745 25.0237H72.4929ZM139.727 26.9697C139.134 25.5797 137.653 23.2166 134.396 23.2166C131.137 23.2166 128.472 25.5797 128.472 29.1938C128.472 32.5298 131.137 35.1709 134.691 35.1709C137.506 35.1709 139.282 33.5028 139.874 32.5298L137.801 31.1398C137.061 32.1128 136.172 32.8078 134.691 32.8078C133.21 32.8078 132.323 32.2518 131.581 31.0008L140.023 27.6647L139.727 26.9697ZM131.137 28.9158C131.137 26.6917 133.062 25.4407 134.396 25.4407C135.432 25.4407 136.469 25.9968 136.764 26.6917L131.137 28.9158ZM124.176 34.6148H126.991V17.2395H124.176V34.6148ZM119.734 24.4677C118.994 23.7727 117.809 23.0777 116.328 23.0777C113.218 23.0777 110.256 25.7187 110.256 29.0547C110.256 32.3908 113.07 34.8929 116.328 34.8929C117.809 34.8929 118.994 34.1979 119.586 33.5028H119.734V34.3368C119.734 36.5609 118.401 37.8119 116.328 37.8119C114.699 37.8119 113.514 36.6999 113.218 35.7268L110.849 36.6999C111.589 38.2289 113.366 40.1749 116.476 40.1749C119.735 40.1749 122.4 38.3679 122.4 34.0588V23.4946H119.734V24.4677ZM116.476 32.6689C114.551 32.6689 112.922 31.1398 112.922 29.0547C112.922 26.9697 114.551 25.4407 116.476 25.4407C118.401 25.4407 119.882 26.9697 119.882 29.0547C119.882 31.1398 118.401 32.6689 116.476 32.6689ZM152.61 17.2395H145.946V34.6148H148.76V28.0817H152.61C155.721 28.0817 158.682 25.9967 158.682 22.6607C158.682 19.3246 155.721 17.2395 152.61 17.2395ZM152.759 25.5797H148.76V19.6026H152.759C154.832 19.6026 156.017 21.2706 156.017 22.5217C155.869 24.0507 154.684 25.5797 152.759 25.5797ZM169.789 23.0777C167.716 23.0777 165.643 23.9116 164.903 25.7187L167.42 26.6917C168.012 25.7187 168.901 25.4407 169.938 25.4407C171.418 25.4407 172.751 26.2747 172.899 27.6647V27.8038C172.456 27.5258 171.27 27.1088 170.086 27.1088C167.42 27.1088 164.754 28.4988 164.754 31.0008C164.754 33.3638 166.976 34.8929 169.345 34.8929C171.27 34.8929 172.159 34.0588 172.899 33.2248H173.048V34.6148H175.713V27.9427C175.416 24.8847 172.899 23.0777 169.789 23.0777ZM169.493 32.6689C168.605 32.6689 167.271 32.2518 167.271 31.1398C167.271 29.7498 168.901 29.3328 170.233 29.3328C171.418 29.3328 172.011 29.6108 172.751 29.8888C172.456 31.5568 170.975 32.6689 169.493 32.6689ZM185.042 23.4946L181.933 31.0008H181.785L178.526 23.4946H175.565L180.452 34.0588L177.639 39.8969H180.452L188.004 23.4946H185.042ZM160.163 34.6148H162.977V17.2395H160.163V34.6148Z" fill="black"/>
<path d="M17.2487 10.4258C16.8044 10.8428 16.6562 11.5378 16.6562 12.3718V43.0913C16.6562 43.9253 16.9525 44.6203 17.3968 45.0373L17.5449 45.1764L35.9082 27.94V27.6621L17.2487 10.4258Z" fill="url(#paint0_linear_7758_7900)"/>
<path d="M41.8296 33.7761L35.7578 28.0771V27.6601L41.8296 21.9609L41.9777 22.1L49.2342 25.992C51.3075 27.104 51.3075 28.911 49.2342 30.023L41.8296 33.7761Z" fill="url(#paint1_linear_7758_7900)"/>
<path d="M41.9814 33.6388L35.7615 27.8008L17.25 45.176C17.9905 45.871 19.0271 45.871 20.3599 45.315L41.9814 33.6388Z" fill="url(#paint2_linear_7758_7900)"/>
<path d="M41.9814 21.9629L20.3599 10.4257C19.0271 9.73068 17.9905 9.86968 17.25 10.5647L35.7615 27.8009L41.9814 21.9629Z" fill="url(#paint3_linear_7758_7900)"/>
<path opacity="0.2" d="M41.8333 33.5039L20.3599 44.9021C19.1752 45.597 18.1385 45.4581 17.3981 44.9021L17.25 45.0411L17.3981 45.1801C18.1385 45.7361 19.1752 45.8751 20.3599 45.1801L41.8333 33.5039Z" fill="white"/>
<path opacity="0.12" d="M17.2487 44.8979C16.8044 44.481 16.6562 43.7859 16.6562 42.952V43.0909C16.6562 43.925 16.9525 44.62 17.3968 45.037V44.8979H17.2487ZM49.2366 29.6078L41.8319 33.4998L41.98 33.6388L49.2366 29.7467C50.2732 29.1908 50.7175 28.4958 50.7175 27.8008C50.7175 28.4958 50.1251 29.0517 49.2366 29.6078Z" fill="white"/>
<path opacity="0.25" d="M20.3586 10.5669L49.2366 25.9962C50.1251 26.5522 50.7175 27.1082 50.7175 27.8032C50.7175 27.1082 50.2732 26.4132 49.2366 25.8571L20.3586 10.4279C18.2853 9.31589 16.6562 10.1499 16.6562 12.374V12.5129C16.6562 10.4279 18.2853 9.45489 20.3586 10.5669Z" fill="black"/>
<defs>
<linearGradient id="paint0_linear_7758_7900" x1="28.4068" y1="12.1077" x2="13.611" y2="27.8538" gradientUnits="userSpaceOnUse">
<stop stop-color="#00A0FF"/>
<stop offset="0.007" stop-color="#00A1FF"/>
<stop offset="0.26" stop-color="#00BEFF"/>
<stop offset="0.512" stop-color="#00D2FF"/>
<stop offset="0.76" stop-color="#00DFFF"/>
<stop offset="1" stop-color="#00E3FF"/>
</linearGradient>
<linearGradient id="paint1_linear_7758_7900" x1="51.9503" y1="27.8004" x2="16.1164" y2="27.8004" gradientUnits="userSpaceOnUse">
<stop stop-color="#FFE000"/>
<stop offset="0.409" stop-color="#FFBD00"/>
<stop offset="0.775" stop-color="#FFA500"/>
<stop offset="1" stop-color="#FF9C00"/>
</linearGradient>
<linearGradient id="paint2_linear_7758_7900" x1="38.6152" y1="33.3274" x2="13.4195" y2="60.1432" gradientUnits="userSpaceOnUse">
<stop stop-color="#FF3A44"/>
<stop offset="1" stop-color="#C31162"/>
</linearGradient>
<linearGradient id="paint3_linear_7758_7900" x1="12.6547" y1="7.89671" x2="23.8675" y2="19.8305" gradientUnits="userSpaceOnUse">
<stop stop-color="#32A071"/>
<stop offset="0.069" stop-color="#2DA771"/>
<stop offset="0.476" stop-color="#15CF74"/>
<stop offset="0.801" stop-color="#06E775"/>
<stop offset="1" stop-color="#00F076"/>
</linearGradient>
</defs>
</svg>
