<svg width="204" height="57" viewBox="0 0 204 57" fill="none" xmlns="http://www.w3.org/2000/svg">
<path d="M195.536 56.5H7.5732C3.36283 56.5 0.0546875 53.42 0.0546875 49.5V7.5C0.0546875 3.58 3.36283 0.5 7.5732 0.5H195.536C199.747 0.5 203.055 3.58 203.055 7.5V49.5C203.055 53.42 199.747 56.5 195.536 56.5Z" fill="black"/>
<path d="M96.521 28.0468V27.9023H96.3672V28.0468H96.521Z" fill="white"/>
<path d="M102.446 23.7166C98.8916 23.7166 96.0779 26.2187 96.0779 29.6938C96.0779 33.0298 98.8916 35.6709 102.446 35.6709C106 35.6709 108.814 33.1689 108.814 29.6938C108.814 26.0797 106 23.7166 102.446 23.7166ZM102.446 33.1689C100.521 33.1689 98.8916 31.6398 98.8916 29.5547C98.8916 27.4697 100.521 25.9407 102.446 25.9407C104.371 25.9407 106 27.3307 106 29.5547C106 31.6398 104.371 33.1689 102.446 33.1689ZM88.6732 23.7166C85.119 23.7166 82.3053 26.2187 82.3053 29.6938C82.3053 33.0298 85.119 35.6709 88.6732 35.6709C92.2274 35.6709 95.0411 33.1689 95.0411 29.6938C95.0411 26.0797 92.2274 23.7166 88.6732 23.7166ZM88.6732 33.1689C86.748 33.1689 85.119 31.6398 85.119 29.5547C85.119 27.4697 86.748 25.9407 88.6732 25.9407C90.5984 25.9407 92.2274 27.3307 92.2274 29.5547C92.2274 31.6398 90.5984 33.1689 88.6732 33.1689ZM72.2351 25.5237V28.0258H78.603C78.4549 29.4158 77.8625 30.5278 77.1221 31.2228C76.2335 32.0568 74.7526 33.0298 72.2351 33.0298C68.2366 33.0298 65.2748 30.1108 65.2748 26.3577C65.2748 22.6046 68.3847 19.6856 72.2351 19.6856C74.3083 19.6856 75.9373 20.5196 77.1221 21.4926L79.0473 19.6856C77.4183 18.2956 75.345 17.1836 72.3831 17.1836C67.0517 17.1836 62.4609 21.3537 62.4609 26.3577C62.4609 31.3618 67.0517 35.5318 72.3831 35.5318C75.345 35.5318 77.4183 34.6979 79.1954 32.8908C80.9724 31.2228 81.5648 28.8597 81.5648 27.0527C81.5648 26.4967 81.5648 25.9407 81.4167 25.5237H72.2351ZM139.469 27.4697C138.877 26.0797 137.395 23.7166 134.138 23.7166C130.879 23.7166 128.214 26.0797 128.214 29.6938C128.214 33.0298 130.879 35.6709 134.433 35.6709C137.248 35.6709 139.024 34.0028 139.616 33.0298L137.543 31.6398C136.803 32.6128 135.914 33.3078 134.433 33.3078C132.952 33.3078 132.065 32.7518 131.324 31.5008L139.765 28.1647L139.469 27.4697ZM130.879 29.4158C130.879 27.1917 132.805 25.9407 134.138 25.9407C135.175 25.9407 136.211 26.4968 136.507 27.1917L130.879 29.4158ZM123.919 35.1148H126.733V17.7395H123.919V35.1148ZM119.477 24.9677C118.736 24.2727 117.551 23.5777 116.07 23.5777C112.96 23.5777 109.999 26.2187 109.999 29.5547C109.999 32.8908 112.812 35.3929 116.07 35.3929C117.551 35.3929 118.736 34.6979 119.328 34.0028H119.477V34.8368C119.477 37.0609 118.144 38.3119 116.07 38.3119C114.441 38.3119 113.257 37.1999 112.96 36.2268L110.591 37.1999C111.331 38.7289 113.108 40.6749 116.218 40.6749C119.477 40.6749 122.142 38.8679 122.142 34.5588V23.9946H119.477V24.9677ZM116.218 33.1689C114.293 33.1689 112.664 31.6398 112.664 29.5547C112.664 27.4697 114.293 25.9407 116.218 25.9407C118.144 25.9407 119.624 27.4697 119.624 29.5547C119.624 31.6398 118.144 33.1689 116.218 33.1689ZM152.352 17.7395H145.688V35.1148H148.503V28.5817H152.352C155.463 28.5817 158.424 26.4967 158.424 23.1607C158.424 19.8246 155.463 17.7395 152.352 17.7395ZM152.501 26.0797H148.503V20.1026H152.501C154.574 20.1026 155.759 21.7706 155.759 23.0217C155.611 24.5507 154.427 26.0797 152.501 26.0797ZM169.531 23.5777C167.458 23.5777 165.385 24.4116 164.645 26.2187L167.162 27.1917C167.755 26.2187 168.644 25.9407 169.68 25.9407C171.16 25.9407 172.493 26.7747 172.641 28.1647V28.3038C172.198 28.0258 171.012 27.6088 169.828 27.6088C167.162 27.6088 164.496 28.9988 164.496 31.5008C164.496 33.8638 166.718 35.3929 169.087 35.3929C171.012 35.3929 171.901 34.5588 172.641 33.7248H172.79V35.1148H175.455V28.4427C175.159 25.3847 172.641 23.5777 169.531 23.5777ZM169.236 33.1689C168.347 33.1689 167.014 32.7518 167.014 31.6398C167.014 30.2498 168.644 29.8328 169.976 29.8328C171.16 29.8328 171.753 30.1108 172.493 30.3888C172.198 32.0568 170.717 33.1689 169.236 33.1689ZM184.785 23.9946L181.675 31.5008H181.527L178.268 23.9946H175.308L180.194 34.5588L177.381 40.3969H180.194L187.747 23.9946H184.785ZM159.905 35.1148H162.719V17.7395H159.905V35.1148Z" fill="white"/>
<path d="M16.983 10.9258C16.5387 11.3428 16.3906 12.0378 16.3906 12.8718V43.5913C16.3906 44.4253 16.6868 45.1203 17.1311 45.5373L17.2792 45.6764L35.6426 28.44V28.1621L16.983 10.9258Z" fill="url(#paint0_linear_7531_7994)"/>
<path d="M41.564 34.2761L35.4922 28.5771V28.1601L41.564 22.4609L41.7121 22.6L48.9685 26.492C51.0418 27.604 51.0418 29.411 48.9685 30.523L41.564 34.2761Z" fill="url(#paint1_linear_7531_7994)"/>
<path d="M41.7158 34.1388L35.4958 28.3008L16.9844 45.676C17.7249 46.371 18.7615 46.371 20.0943 45.815L41.7158 34.1388Z" fill="url(#paint2_linear_7531_7994)"/>
<path d="M41.7158 22.4629L20.0943 10.9257C18.7615 10.2307 17.7249 10.3697 16.9844 11.0647L35.4958 28.3009L41.7158 22.4629Z" fill="url(#paint3_linear_7531_7994)"/>
<path opacity="0.2" d="M41.5677 34.0039L20.0943 45.4021C18.9096 46.097 17.8729 45.9581 17.1325 45.4021L16.9844 45.5411L17.1325 45.6801C17.8729 46.2361 18.9096 46.3751 20.0943 45.6801L41.5677 34.0039Z" fill="black"/>
<path opacity="0.12" d="M16.983 45.3979C16.5387 44.981 16.3906 44.2859 16.3906 43.452V43.5909C16.3906 44.425 16.6868 45.12 17.1311 45.537V45.3979H16.983ZM48.9709 30.1078L41.5663 33.9998L41.7144 34.1388L48.9709 30.2467C50.0075 29.6908 50.4519 28.9958 50.4519 28.3008C50.4519 28.9958 49.8594 29.5517 48.9709 30.1078Z" fill="black"/>
<path opacity="0.25" d="M20.0929 11.0669L48.9709 26.4962C49.8594 27.0522 50.4519 27.6082 50.4519 28.3032C50.4519 27.6082 50.0075 26.9132 48.9709 26.3571L20.0929 10.9279C18.0196 9.81589 16.3906 10.6499 16.3906 12.874V13.0129C16.3906 10.9279 18.0196 9.95489 20.0929 11.0669Z" fill="white"/>
<defs>
<linearGradient id="paint0_linear_7531_7994" x1="28.1412" y1="12.6077" x2="13.3454" y2="28.3538" gradientUnits="userSpaceOnUse">
<stop stop-color="#00A0FF"/>
<stop offset="0.007" stop-color="#00A1FF"/>
<stop offset="0.26" stop-color="#00BEFF"/>
<stop offset="0.512" stop-color="#00D2FF"/>
<stop offset="0.76" stop-color="#00DFFF"/>
<stop offset="1" stop-color="#00E3FF"/>
</linearGradient>
<linearGradient id="paint1_linear_7531_7994" x1="51.6846" y1="28.3004" x2="15.8507" y2="28.3004" gradientUnits="userSpaceOnUse">
<stop stop-color="#FFE000"/>
<stop offset="0.409" stop-color="#FFBD00"/>
<stop offset="0.775" stop-color="#FFA500"/>
<stop offset="1" stop-color="#FF9C00"/>
</linearGradient>
<linearGradient id="paint2_linear_7531_7994" x1="38.3496" y1="33.8274" x2="13.1539" y2="60.6432" gradientUnits="userSpaceOnUse">
<stop stop-color="#FF3A44"/>
<stop offset="1" stop-color="#C31162"/>
</linearGradient>
<linearGradient id="paint3_linear_7531_7994" x1="12.389" y1="8.39671" x2="23.6019" y2="20.3305" gradientUnits="userSpaceOnUse">
<stop stop-color="#32A071"/>
<stop offset="0.069" stop-color="#2DA771"/>
<stop offset="0.476" stop-color="#15CF74"/>
<stop offset="0.801" stop-color="#06E775"/>
<stop offset="1" stop-color="#00F076"/>
</linearGradient>
</defs>
</svg>
