<svg width="204" height="56" viewBox="0 0 204 56" fill="none" xmlns="http://www.w3.org/2000/svg">
<path d="M195.505 0H7.80375C3.49386 0 0 3.34294 0 7.46667V48.5333C0 52.657 3.49386 56 7.80375 56H195.505C199.815 56 203.309 52.657 203.309 48.5333V7.46667C203.309 3.34294 199.815 0 195.505 0Z" fill="white"/>
<path fill-rule="evenodd" clip-rule="evenodd" d="M55.8794 26.2792C55.8443 22.5627 59.1082 20.7539 59.2585 20.6699C57.409 18.1294 54.543 17.7822 53.5363 17.7542C51.1289 17.5152 48.7956 19.1112 47.5665 19.1112C46.3179 19.1112 44.4294 17.7766 42.3946 17.8158C39.7745 17.8531 37.324 19.283 35.9818 21.5024C33.2076 26.0272 35.2756 32.6763 37.9327 36.3331C39.2613 38.1251 40.8143 40.1224 42.8491 40.0534C44.8372 39.9768 45.5805 38.8587 47.9801 38.8587C50.3563 38.8587 51.0548 40.0534 53.1267 40.0086C55.261 39.9768 56.6052 38.2091 57.8869 36.4022C59.4242 34.3488 60.0408 32.3272 60.0642 32.2227C60.0154 32.2078 55.9203 30.735 55.8794 26.2792ZM51.9639 15.348C53.033 14.088 53.7646 12.3726 53.5618 10.6328C52.0146 10.6963 50.0773 11.6408 48.9634 12.8728C47.9762 13.9611 47.0963 15.7419 47.3246 17.4163C49.0609 17.5376 50.848 16.5894 51.9639 15.348ZM84.6596 35.3755H81.8796L80.3579 30.8675H75.065L73.6153 35.3755H70.9094L76.1516 20.0278H79.3901L84.6577 35.3755H84.6596ZM79.8994 28.9747L78.522 24.967C78.3757 24.5582 78.1025 23.595 77.7006 22.0755H77.6518C77.4919 22.7288 77.2324 23.6939 76.8773 24.9688L75.5253 28.9747H79.8994ZM98.1406 29.7046C98.1406 31.588 97.6022 33.0758 96.5213 34.1678C95.5556 35.1384 94.3558 35.6238 92.9218 35.6238C91.3748 35.6238 90.2646 35.1011 89.5857 34.0558H89.5389V39.8854H86.9285V27.9518C86.9285 26.7683 86.8954 25.5531 86.831 24.308H89.1272L89.2716 26.0627H89.3223C90.1925 24.7411 91.5113 24.0803 93.2828 24.0803C94.6679 24.0803 95.8248 24.5955 96.7516 25.6296C97.6782 26.6619 98.1406 28.019 98.1406 29.7046ZM95.4834 29.796C95.4834 28.719 95.2259 27.8304 94.7089 27.1304C94.4541 26.783 94.1133 26.5015 93.7171 26.311C93.3208 26.1204 92.8813 26.0268 92.438 26.0384C91.7942 26.0384 91.2089 26.24 90.688 26.6414C90.1658 27.0406 89.8028 27.5994 89.6599 28.2243C89.5883 28.4689 89.5477 28.7209 89.5389 28.9747V30.819C89.5389 31.6254 89.8003 32.3048 90.3252 32.8592C90.8479 33.4136 91.5288 33.6899 92.3658 33.6899C93.3491 33.6899 94.1139 33.3334 94.6601 32.6203C95.2083 31.9054 95.4834 30.9646 95.4834 29.796ZM111.647 29.7046C111.647 31.588 111.108 33.0758 110.028 34.1678C109.062 35.1384 107.862 35.6238 106.428 35.6238C104.881 35.6238 103.771 35.1011 103.094 34.0558H103.045V39.8854H100.437V27.9518C100.437 26.7683 100.404 25.5531 100.339 24.308H102.636L102.78 26.0627H102.829C103.699 24.7411 105.02 24.0803 106.791 24.0803C108.176 24.0803 109.333 24.5955 110.26 25.6296C111.185 26.6619 111.647 28.019 111.647 29.7046ZM108.99 29.796C108.99 28.719 108.732 27.8304 108.215 27.1304C107.961 26.7828 107.62 26.5011 107.224 26.3105C106.827 26.12 106.388 26.0264 105.944 26.0384C105.301 26.0384 104.715 26.24 104.192 26.6414C103.671 27.041 103.309 27.5998 103.166 28.2243C103.088 28.5286 103.045 28.7787 103.045 28.9747V30.819C103.045 31.6254 103.309 32.3048 103.83 32.8592C104.352 33.4118 105.033 33.6899 105.872 33.6899C106.855 33.6899 107.62 33.3334 108.168 32.6203C108.715 31.9054 108.99 30.9646 108.99 29.796ZM126.75 31.071C126.75 32.3776 126.268 33.4379 125.303 34.2592C124.243 35.1552 122.765 35.6032 120.867 35.6032C119.113 35.6032 117.708 35.284 116.645 34.6456L117.25 32.596C118.395 33.2494 119.652 33.5779 121.021 33.5779C122.004 33.5779 122.769 33.367 123.319 32.9507C123.865 32.5326 124.139 31.9726 124.139 31.2726C124.139 30.651 123.914 30.1246 123.462 29.699C123.013 29.2734 122.262 28.8776 121.214 28.5136C118.364 27.5112 116.94 26.0422 116.94 24.112C116.94 22.8502 117.439 21.816 118.438 21.0115C119.434 20.2051 120.764 19.8019 122.426 19.8019C123.908 19.8019 125.137 20.0446 126.121 20.5299L125.469 22.5347C124.553 22.0643 123.512 21.8291 122.351 21.8291C121.435 21.8291 120.716 22.0438 120.203 22.4675C119.996 22.6396 119.83 22.8531 119.716 23.0929C119.604 23.3327 119.547 23.5933 119.55 23.8563C119.544 24.1451 119.61 24.4312 119.74 24.692C119.87 24.9527 120.061 25.1811 120.3 25.359C120.732 25.7248 121.523 26.1187 122.667 26.5443C124.068 27.0763 125.098 27.6979 125.76 28.411C126.419 29.1203 126.75 30.0107 126.75 31.071ZM135.376 26.1542H132.5V31.5264C132.5 32.8928 133.007 33.576 134.022 33.576C134.488 33.576 134.875 33.5387 135.182 33.4622L135.253 35.3288C134.738 35.5099 134.063 35.6014 133.225 35.6014C132.195 35.6014 131.388 35.3046 130.807 34.7128C130.228 34.1211 129.937 33.1262 129.937 31.7299V26.1504H128.225V24.3062H129.937V22.279L132.5 21.551V24.3062H135.376V26.1542ZM148.35 29.7512C148.35 31.4499 147.835 32.8499 146.804 33.94C145.724 35.0656 144.288 35.6256 142.501 35.6256C140.778 35.6256 139.407 35.0862 138.384 34.0091C137.36 32.932 136.849 31.5731 136.849 29.9342C136.849 28.2187 137.376 26.815 138.43 25.7211C139.485 24.6291 140.907 24.0822 142.695 24.0822C144.419 24.0822 145.804 24.6198 146.85 25.6987C147.852 26.744 148.352 28.0955 148.352 29.7494L148.35 29.7512ZM145.644 29.8296C145.644 28.8086 145.414 27.9331 144.944 27.2032C144.397 26.3203 143.617 25.8798 142.603 25.8798C141.553 25.8798 140.757 26.3222 140.209 27.2051C139.74 27.935 139.51 28.8235 139.51 29.8744C139.51 30.8974 139.74 31.7728 140.209 32.5008C140.775 33.3838 141.561 33.8262 142.579 33.8262C143.574 33.8262 144.357 33.3744 144.92 32.4784C145.402 31.7337 145.644 30.8488 145.644 29.8296ZM156.833 26.4715C156.561 26.4249 156.285 26.4018 156.009 26.4024C155.092 26.4024 154.382 26.7291 153.883 27.3824C153.447 27.9611 153.231 28.6891 153.231 29.5683V35.3736H150.623L150.646 27.795C150.646 26.5182 150.613 25.3571 150.549 24.3099H152.821L152.918 26.4267H152.989C153.265 25.6987 153.699 25.1126 154.295 24.672C154.876 24.2782 155.503 24.0803 156.179 24.0803C156.421 24.0803 156.637 24.0971 156.833 24.1251V26.4696V26.4715ZM168.501 29.3182C168.501 29.7587 168.47 30.1302 168.403 30.4326H160.579C160.607 31.5264 160.988 32.3627 161.713 32.9395C162.373 33.4547 163.225 33.7142 164.273 33.7142C165.432 33.7142 166.49 33.5387 167.44 33.1896L167.849 34.8958C166.737 35.3531 165.427 35.5808 163.913 35.5808C162.092 35.5808 160.662 35.0768 159.62 34.067C158.585 33.0571 158.063 31.7019 158.063 30.0014C158.063 28.3326 158.548 26.9438 159.515 25.835C160.53 24.6515 161.897 24.0616 163.622 24.0616C165.314 24.0616 166.595 24.6515 167.465 25.835C168.154 26.7758 168.499 27.9368 168.499 29.3182H168.501ZM166.012 28.6798C166.031 27.9518 165.859 27.3208 165.505 26.7907C165.056 26.1056 164.361 25.764 163.427 25.764C162.574 25.764 161.879 26.0982 161.349 26.7664C160.906 27.3203 160.638 27.9844 160.579 28.6798H166.012Z" fill="black"/>
</svg>
