<svg width="205" height="57" viewBox="0 0 205 57" fill="none" xmlns="http://www.w3.org/2000/svg">
<g clip-path="url(#clip0_7531_7990)">
<path d="M195.513 0.5H7.81156C3.50167 0.5 0.0078125 3.84294 0.0078125 7.96667V49.0333C0.0078125 53.157 3.50167 56.5 7.81156 56.5H195.513C199.823 56.5 203.317 53.157 203.317 49.0333V7.96667C203.317 3.84294 199.823 0.5 195.513 0.5Z" fill="black"/>
<path fill-rule="evenodd" clip-rule="evenodd" d="M55.8872 26.7792C55.8521 23.0627 59.116 21.2539 59.2663 21.1699C57.4168 18.6294 54.5508 18.2822 53.5442 18.2542C51.1367 18.0152 48.8034 19.6112 47.5743 19.6112C46.3257 19.6112 44.4372 18.2766 42.4024 18.3158C39.7823 18.3531 37.3318 19.783 35.9896 22.0024C33.2154 26.5272 35.2834 33.1763 37.9405 36.8331C39.2692 38.6251 40.8221 40.6224 42.8569 40.5534C44.845 40.4768 45.5883 39.3587 47.9879 39.3587C50.3641 39.3587 51.0626 40.5534 53.1345 40.5086C55.2688 40.4768 56.613 38.7091 57.8947 36.9022C59.432 34.8488 60.0486 32.8272 60.072 32.7227C60.0232 32.7078 55.9281 31.235 55.8872 26.7792ZM51.9717 15.848C53.0408 14.588 53.7724 12.8726 53.5696 11.1328C52.0225 11.1963 50.0851 12.1408 48.9712 13.3728C47.984 14.4611 47.1041 16.2419 47.3324 17.9163C49.0687 18.0376 50.8558 17.0894 51.9717 15.848ZM84.6674 35.8755H81.8874L80.3657 31.3675H75.0728L73.6231 35.8755H70.9172L76.1594 20.5278H79.3979L84.6655 35.8755H84.6674ZM79.9072 29.4747L78.5298 25.467C78.3835 25.0582 78.1103 24.095 77.7084 22.5755H77.6596C77.4997 23.2288 77.2402 24.1939 76.8852 25.4688L75.5331 29.4747H79.9072ZM98.1484 30.2046C98.1484 32.088 97.61 33.5758 96.5291 34.6678C95.5634 35.6384 94.3636 36.1238 92.9296 36.1238C91.3826 36.1238 90.2725 35.6011 89.5935 34.5558H89.5467V40.3854H86.9363V28.4518C86.9363 27.2683 86.9032 26.0531 86.8389 24.808H89.135L89.2794 26.5627H89.3301C90.2003 25.2411 91.5191 24.5803 93.2906 24.5803C94.6758 24.5803 95.8327 25.0955 96.7594 26.1296C97.686 27.1619 98.1484 28.519 98.1484 30.2046ZM95.4913 30.296C95.4913 29.219 95.2337 28.3304 94.7167 27.6304C94.4619 27.283 94.1211 27.0015 93.7249 26.811C93.3286 26.6204 92.8891 26.5268 92.4458 26.5384C91.802 26.5384 91.2167 26.74 90.6959 27.1414C90.1737 27.5406 89.8107 28.0994 89.6677 28.7243C89.5961 28.9689 89.5555 29.2209 89.5467 29.4747V31.319C89.5467 32.1254 89.8082 32.8048 90.333 33.3592C90.8558 33.9136 91.5367 34.1899 92.3736 34.1899C93.3569 34.1899 94.1217 33.8334 94.6679 33.1203C95.2161 32.4054 95.4913 31.4646 95.4913 30.296ZM111.655 30.2046C111.655 32.088 111.116 33.5758 110.035 34.6678C109.07 35.6384 107.87 36.1238 106.436 36.1238C104.889 36.1238 103.779 35.6011 103.102 34.5558H103.053V40.3854H100.445V28.4518C100.445 27.2683 100.411 26.0531 100.347 24.808H102.643L102.788 26.5627H102.837C103.707 25.2411 105.027 24.5803 106.799 24.5803C108.184 24.5803 109.341 25.0955 110.268 26.1296C111.192 27.1619 111.655 28.519 111.655 30.2046ZM108.998 30.296C108.998 29.219 108.74 28.3304 108.223 27.6304C107.968 27.2828 107.628 27.0011 107.231 26.8105C106.835 26.62 106.396 26.5264 105.952 26.5384C105.308 26.5384 104.723 26.74 104.2 27.1414C103.679 27.541 103.316 28.0998 103.174 28.7243C103.096 29.0286 103.053 29.2787 103.053 29.4747V31.319C103.053 32.1254 103.316 32.8048 103.837 33.3592C104.36 33.9118 105.041 34.1899 105.88 34.1899C106.863 34.1899 107.628 33.8334 108.176 33.1203C108.722 32.4054 108.998 31.4646 108.998 30.296ZM126.757 31.571C126.757 32.8776 126.275 33.9379 125.311 34.7592C124.25 35.6552 122.773 36.1032 120.874 36.1032C119.121 36.1032 117.716 35.784 116.653 35.1456L117.258 33.096C118.403 33.7494 119.66 34.0779 121.028 34.0779C122.012 34.0779 122.777 33.867 123.327 33.4507C123.873 33.0326 124.147 32.4726 124.147 31.7726C124.147 31.151 123.922 30.6246 123.47 30.199C123.021 29.7734 122.269 29.3776 121.222 29.0136C118.372 28.0112 116.948 26.5422 116.948 24.612C116.948 23.3502 117.447 22.316 118.446 21.5115C119.441 20.7051 120.772 20.3019 122.434 20.3019C123.916 20.3019 125.145 20.5446 126.129 21.0299L125.477 23.0347C124.561 22.5643 123.52 22.3291 122.359 22.3291C121.442 22.3291 120.724 22.5438 120.211 22.9675C120.003 23.1396 119.837 23.3531 119.724 23.5929C119.612 23.8327 119.555 24.0933 119.558 24.3563C119.552 24.6451 119.618 24.9312 119.748 25.192C119.878 25.4527 120.069 25.6811 120.308 25.859C120.74 26.2248 121.531 26.6187 122.675 27.0443C124.076 27.5763 125.106 28.1979 125.768 28.911C126.427 29.6203 126.757 30.5107 126.757 31.571ZM135.384 26.6542H132.508V32.0264C132.508 33.3928 133.015 34.076 134.029 34.076C134.496 34.076 134.883 34.0387 135.189 33.9622L135.261 35.8288C134.745 36.0099 134.071 36.1014 133.232 36.1014C132.202 36.1014 131.396 35.8046 130.815 35.2128C130.236 34.6211 129.945 33.6262 129.945 32.2299V26.6504H128.232V24.8062H129.945V22.779L132.508 22.051V24.8062H135.384V26.6542ZM148.357 30.2512C148.357 31.9499 147.843 33.3499 146.812 34.44C145.732 35.5656 144.295 36.1256 142.509 36.1256C140.786 36.1256 139.415 35.5862 138.392 34.5091C137.368 33.432 136.856 32.0731 136.856 30.4342C136.856 28.7187 137.384 27.315 138.438 26.2211C139.492 25.1291 140.915 24.5822 142.702 24.5822C144.427 24.5822 145.812 25.1198 146.857 26.1987C147.86 27.244 148.36 28.5955 148.36 30.2494L148.357 30.2512ZM145.652 30.3296C145.652 29.3086 145.422 28.4331 144.952 27.7032C144.405 26.8203 143.625 26.3798 142.61 26.3798C141.56 26.3798 140.764 26.8222 140.217 27.7051C139.748 28.435 139.517 29.3235 139.517 30.3744C139.517 31.3974 139.748 32.2728 140.217 33.0008C140.782 33.8838 141.569 34.3262 142.587 34.3262C143.582 34.3262 144.365 33.8744 144.928 32.9784C145.41 32.2337 145.652 31.3488 145.652 30.3296ZM156.841 26.9715C156.569 26.9249 156.293 26.9018 156.017 26.9024C155.1 26.9024 154.39 27.2291 153.891 27.8824C153.455 28.4611 153.239 29.1891 153.239 30.0683V35.8736H150.631L150.653 28.295C150.653 27.0182 150.621 25.8571 150.557 24.8099H152.829L152.925 26.9267H152.997C153.273 26.1987 153.707 25.6126 154.302 25.172C154.884 24.7782 155.511 24.5803 156.187 24.5803C156.429 24.5803 156.645 24.5971 156.841 24.6251V26.9696V26.9715ZM168.509 29.8182C168.509 30.2587 168.478 30.6302 168.411 30.9326H160.586C160.615 32.0264 160.996 32.8627 161.721 33.4395C162.381 33.9547 163.233 34.2142 164.281 34.2142C165.44 34.2142 166.498 34.0387 167.448 33.6896L167.857 35.3958C166.745 35.8531 165.435 36.0808 163.92 36.0808C162.1 36.0808 160.67 35.5768 159.628 34.567C158.592 33.5571 158.071 32.2019 158.071 30.5014C158.071 28.8326 158.555 27.4438 159.523 26.335C160.537 25.1515 161.905 24.5616 163.629 24.5616C165.321 24.5616 166.603 25.1515 167.473 26.335C168.161 27.2758 168.506 28.4368 168.506 29.8182H168.509ZM166.02 29.1798C166.039 28.4518 165.867 27.8208 165.512 27.2907C165.064 26.6056 164.369 26.264 163.435 26.264C162.582 26.264 161.887 26.5982 161.357 27.2664C160.913 27.8203 160.646 28.4844 160.586 29.1798H166.02Z" fill="#E7E7E7"/>
</g>
<defs>
<clipPath id="clip0_7531_7990">
<rect width="204.055" height="56" fill="white" transform="translate(0 0.5)"/>
</clipPath>
</defs>
</svg>
