<svg width="32" height="32" viewBox="0 0 32 32" fill="none" xmlns="http://www.w3.org/2000/svg">
<path d="M28.7081 9.70708L12.7081 25.7071C12.6152 25.8001 12.5049 25.8738 12.3835 25.9241C12.2621 25.9745 12.132 26.0004 12.0006 26.0004C11.8691 26.0004 11.739 25.9745 11.6176 25.9241C11.4962 25.8738 11.3859 25.8001 11.2931 25.7071L4.29306 18.7071C4.10542 18.5194 4 18.2649 4 17.9996C4 17.7342 4.10542 17.4797 4.29306 17.2921C4.4807 17.1044 4.73519 16.999 5.00056 16.999C5.26592 16.999 5.52042 17.1044 5.70806 17.2921L12.0006 23.5858L27.2931 8.29208C27.4807 8.10444 27.7352 7.99902 28.0006 7.99902C28.2659 7.99902 28.5204 8.10444 28.7081 8.29208C28.8957 8.47972 29.0011 8.73422 29.0011 8.99958C29.0011 9.26494 28.8957 9.51944 28.7081 9.70708Z" fill="#151516"/>
</svg>
