<svg width="134" height="34" viewBox="0 0 134 34" fill="none" xmlns="http://www.w3.org/2000/svg">
<path d="M16.7251 33.3045C25.9621 33.3045 33.4502 25.849 33.4502 16.6522C33.4502 7.45546 25.9621 0 16.7251 0C7.48809 0 0 7.45546 0 16.6522C0 25.849 7.48809 33.3045 16.7251 33.3045Z" fill="url(#paint0_radial_157_235)"/>
<path d="M22.4941 20.2817C22.3553 20.2201 22.2049 20.1888 22.0529 20.19C21.9215 20.1901 21.7911 20.2123 21.6671 20.2555C21.4374 20.3557 21.2327 20.5053 21.0679 20.6935C20.9997 20.7648 20.9272 20.8318 20.8506 20.8941C19.797 21.6808 18.8238 22.0453 17.6451 22.0925V11.5491C18.6895 11.6881 19.4441 12.1038 19.8839 12.7882C19.978 12.9474 20.0586 13.1141 20.1249 13.2865C20.2249 13.5635 20.3656 13.8242 20.5424 14.0601C20.5622 14.085 20.6412 14.1715 20.6557 14.1912C20.8458 14.3723 21.0998 14.4717 21.3629 14.4679C21.5056 14.4705 21.6472 14.442 21.7778 14.3845C21.9083 14.327 22.0247 14.2418 22.1188 14.1348C22.3182 13.8663 22.4186 13.5375 22.4032 13.2039C22.4032 13.0203 22.4177 12.8997 22.4243 12.8105C22.4408 12.6359 22.4382 12.4601 22.4164 12.286C22.3045 11.3302 22.0358 11.1466 21.2009 10.7126L20.9375 10.5749C19.664 9.89441 18.916 9.73838 17.653 9.57186C17.7781 7.62997 18.1627 6.94946 18.5683 6.51414C18.6949 6.38544 18.8468 6.28409 19.0144 6.21641C19.1821 6.14873 19.362 6.11618 19.5428 6.12078C19.6071 6.12075 19.6713 6.12469 19.7351 6.13258C19.34 6.8144 19.4414 7.53425 19.9985 8.00497C20.3187 8.24632 20.7126 8.37042 21.114 8.35637C21.4707 8.37037 21.8222 8.26767 22.1148 8.06398C22.8326 7.4936 22.8326 6.47742 22.4204 5.86509C21.9398 5.1765 21.2093 4.70072 20.3831 4.53816C19.6245 4.37886 18.8362 4.43433 18.1076 4.69829C17.3791 4.96226 16.7394 5.42415 16.261 6.03162L16.2097 6.09455C15.866 6.50627 14.9783 7.56965 14.902 9.56268C10.8458 10.4359 8.61621 12.922 8.61621 16.5907C8.61621 18.8329 9.44061 22.7534 14.9033 24.1104C14.9033 24.1852 14.9033 24.2599 14.9033 24.332C14.8783 25.1043 14.8611 25.6629 14.4121 26.5178C14.2906 26.7225 14.1171 26.8916 13.909 27.0081C13.7008 27.1246 13.4655 27.1843 13.2268 27.1813C13.1384 27.182 13.0501 27.1737 12.9634 27.1564C13.0669 26.9361 13.1143 26.6938 13.1017 26.4509C13.0956 26.245 13.0419 26.0433 12.9448 25.8614C12.8478 25.6795 12.7099 25.5223 12.542 25.402C12.5311 25.3942 12.5196 25.3872 12.5078 25.381C12.2275 25.2178 11.9105 25.1276 11.5859 25.1188C11.1981 25.1245 10.827 25.2767 10.5476 25.5444C10.2682 25.8121 10.1013 26.1755 10.0806 26.5611C10.0749 26.817 10.1203 27.0716 10.2141 27.3099C10.3079 27.5483 10.4483 27.7657 10.6272 27.9496C10.9118 28.2815 11.2672 28.546 11.6675 28.7238C12.0678 28.9017 12.5028 28.9884 12.941 28.9776C13.2951 28.9738 13.648 28.9356 13.9946 28.8636C15.513 28.4912 16.6206 27.5327 17.2869 26.0143C17.5161 25.4898 17.5951 24.6048 17.6201 24.134C18.4508 24.0472 19.2627 23.8313 20.0262 23.4942C21.6276 22.7612 22.1333 22.2446 22.5283 21.8303L22.6324 21.7228C23.013 21.3294 22.9945 20.9741 22.9116 20.7367C22.8383 20.5361 22.6882 20.3725 22.4941 20.2817ZM14.9112 16.849C14.9112 18.5798 14.9112 20.304 14.9112 22.002C13.1992 21.5051 12.0284 19.4963 12.0284 16.9408C12.0284 14.8494 12.5433 12.2847 14.9257 11.6029C14.9151 13.3442 14.9125 15.0999 14.9112 16.849Z" fill="white"/>
<path opacity="0.1" d="M28.3632 4.69365C25.2065 1.67264 20.9859 0.0045833 16.6076 0.0476902C12.2293 0.090797 8.04259 1.84163 4.94652 4.92421C1.85046 8.00678 0.0919658 12.1753 0.0486703 16.5345C0.0053748 20.8937 1.68073 25.0959 4.71496 28.2389L28.3632 4.69365Z" fill="url(#paint1_linear_157_235)"/>
<path d="M46.5133 24.7808C45.1048 24.04 43.9277 22.9283 43.1103 21.567C42.2842 20.1955 41.8711 18.6466 41.8711 16.9201C41.8711 15.1937 42.2842 13.6452 43.1103 12.2746C43.9266 10.9124 45.104 9.80046 46.5133 9.06081C47.9558 8.28808 49.5778 7.90171 51.3794 7.90171C52.7918 7.87907 54.1935 8.14829 55.4961 8.69236C56.6933 9.2028 57.752 9.98822 58.5857 10.9843L55.9834 13.3733C54.799 12.0123 53.3311 11.3314 51.5796 11.3305C50.5683 11.314 49.5701 11.5589 48.6823 12.0412C47.8448 12.5007 47.1553 13.1872 46.6937 14.0211C46.2093 14.905 45.9634 15.8989 45.9799 16.9057C45.9632 17.9126 46.2092 18.9065 46.6937 19.7904C47.1553 20.6242 47.8448 21.3107 48.6823 21.7703C49.5701 22.2525 50.5683 22.4974 51.5796 22.4809C53.3311 22.4809 54.799 21.7917 55.9834 20.4132L58.5857 22.814C57.7558 23.8267 56.6909 24.6232 55.483 25.1348C54.1785 25.6795 52.7753 25.9509 51.3609 25.932C49.5725 25.932 47.9567 25.5483 46.5133 24.7808Z" fill="#1D1D1F"/>
<path d="M46.5133 24.7808C45.1048 24.04 43.9277 22.9283 43.1103 21.567C42.2842 20.1955 41.8711 18.6466 41.8711 16.9201C41.8711 15.1937 42.2842 13.6452 43.1103 12.2746C43.9266 10.9124 45.104 9.80046 46.5133 9.06081C47.9558 8.28808 49.5778 7.90171 51.3794 7.90171C52.7918 7.87907 54.1935 8.14829 55.4961 8.69236C56.6933 9.2028 57.752 9.98822 58.5857 10.9843L55.9834 13.3733C54.799 12.0123 53.3311 11.3314 51.5796 11.3305C50.5683 11.314 49.5701 11.5589 48.6823 12.0412C47.8448 12.5007 47.1553 13.1872 46.6937 14.0211C46.2093 14.905 45.9634 15.8989 45.9799 16.9057C45.9632 17.9126 46.2092 18.9065 46.6937 19.7904C47.1553 20.6242 47.8448 21.3107 48.6823 21.7703C49.5701 22.2525 50.5683 22.4974 51.5796 22.4809C53.3311 22.4809 54.799 21.7917 55.9834 20.4132L58.5857 22.814C57.7558 23.8267 56.6909 24.6232 55.483 25.1348C54.1785 25.6795 52.7753 25.9509 51.3609 25.932C49.5725 25.932 47.9567 25.5483 46.5133 24.7808Z" fill="black" fill-opacity="0.2"/>
<path d="M46.5133 24.7808C45.1048 24.04 43.9277 22.9283 43.1103 21.567C42.2842 20.1955 41.8711 18.6466 41.8711 16.9201C41.8711 15.1937 42.2842 13.6452 43.1103 12.2746C43.9266 10.9124 45.104 9.80046 46.5133 9.06081C47.9558 8.28808 49.5778 7.90171 51.3794 7.90171C52.7918 7.87907 54.1935 8.14829 55.4961 8.69236C56.6933 9.2028 57.752 9.98822 58.5857 10.9843L55.9834 13.3733C54.799 12.0123 53.3311 11.3314 51.5796 11.3305C50.5683 11.314 49.5701 11.5589 48.6823 12.0412C47.8448 12.5007 47.1553 13.1872 46.6937 14.0211C46.2093 14.905 45.9634 15.8989 45.9799 16.9057C45.9632 17.9126 46.2092 18.9065 46.6937 19.7904C47.1553 20.6242 47.8448 21.3107 48.6823 21.7703C49.5701 22.2525 50.5683 22.4974 51.5796 22.4809C53.3311 22.4809 54.799 21.7917 55.9834 20.4132L58.5857 22.814C57.7558 23.8267 56.6909 24.6232 55.483 25.1348C54.1785 25.6795 52.7753 25.9509 51.3609 25.932C49.5725 25.932 47.9567 25.5483 46.5133 24.7808Z" fill="black" fill-opacity="0.2"/>
<path d="M66.6562 12.5288C67.5266 12.1821 68.458 12.0127 69.3954 12.0306V15.618C68.9617 15.5857 68.6698 15.5691 68.5196 15.5682C67.402 15.5682 66.5262 15.8798 65.8923 16.5031C65.2584 17.1263 64.9415 18.0603 64.9415 19.3051V25.633H61.0381V12.2299H64.7663V13.9987C65.2454 13.342 65.9002 12.8326 66.6562 12.5288Z" fill="#1D1D1F"/>
<path d="M66.6562 12.5288C67.5266 12.1821 68.458 12.0127 69.3954 12.0306V15.618C68.9617 15.5857 68.6698 15.5691 68.5196 15.5682C67.402 15.5682 66.5262 15.8798 65.8923 16.5031C65.2584 17.1263 64.9415 18.0603 64.9415 19.3051V25.633H61.0381V12.2299H64.7663V13.9987C65.2454 13.342 65.9002 12.8326 66.6562 12.5288Z" fill="black" fill-opacity="0.2"/>
<path d="M66.6562 12.5288C67.5266 12.1821 68.458 12.0127 69.3954 12.0306V15.618C68.9617 15.5857 68.6698 15.5691 68.5196 15.5682C67.402 15.5682 66.5262 15.8798 65.8923 16.5031C65.2584 17.1263 64.9415 18.0603 64.9415 19.3051V25.633H61.0381V12.2299H64.7663V13.9987C65.2454 13.342 65.9002 12.8326 66.6562 12.5288Z" fill="black" fill-opacity="0.2"/>
<path d="M84.7079 20.0282H74.5241C74.687 20.8263 75.1531 21.5309 75.8252 21.995C76.51 22.4776 77.3607 22.7184 78.3774 22.7175C79.013 22.7289 79.6452 22.6231 80.2422 22.4054C80.8081 22.1828 81.3229 21.8483 81.7554 21.422L83.8322 23.6642C82.5653 25.1083 80.7137 25.8303 78.2773 25.8303C76.7602 25.8303 75.4174 25.5357 74.2488 24.9466C73.1315 24.4016 72.1938 23.5499 71.5465 22.492C70.9043 21.415 70.5752 20.1817 70.5956 18.9295C70.5784 17.6833 70.9031 16.4561 71.5346 15.38C72.1485 14.3371 73.0405 13.4838 74.1119 12.915C75.2307 12.3405 76.4702 12.0377 77.729 12.0314C78.9878 12.025 80.2303 12.3152 81.355 12.8783C82.4103 13.431 83.2835 14.2745 83.8704 15.3079C84.4788 16.3621 84.783 17.5859 84.783 18.9793C84.783 19.0309 84.758 19.3805 84.7079 20.0282ZM75.575 15.7183C74.9744 16.2166 74.6075 16.8975 74.474 17.7612H81.1048C81.0026 16.973 80.6103 16.2507 80.0038 15.7341C79.3875 15.2217 78.6045 14.9513 77.8019 14.9736C76.9187 14.9718 76.1764 15.2201 75.575 15.7183Z" fill="#1D1D1F"/>
<path d="M84.7079 20.0282H74.5241C74.687 20.8263 75.1531 21.5309 75.8252 21.995C76.51 22.4776 77.3607 22.7184 78.3774 22.7175C79.013 22.7289 79.6452 22.6231 80.2422 22.4054C80.8081 22.1828 81.3229 21.8483 81.7554 21.422L83.8322 23.6642C82.5653 25.1083 80.7137 25.8303 78.2773 25.8303C76.7602 25.8303 75.4174 25.5357 74.2488 24.9466C73.1315 24.4016 72.1938 23.5499 71.5465 22.492C70.9043 21.415 70.5752 20.1817 70.5956 18.9295C70.5784 17.6833 70.9031 16.4561 71.5346 15.38C72.1485 14.3371 73.0405 13.4838 74.1119 12.915C75.2307 12.3405 76.4702 12.0377 77.729 12.0314C78.9878 12.025 80.2303 12.3152 81.355 12.8783C82.4103 13.431 83.2835 14.2745 83.8704 15.3079C84.4788 16.3621 84.783 17.5859 84.783 18.9793C84.783 19.0309 84.758 19.3805 84.7079 20.0282ZM75.575 15.7183C74.9744 16.2166 74.6075 16.8975 74.474 17.7612H81.1048C81.0026 16.973 80.6103 16.2507 80.0038 15.7341C79.3875 15.2217 78.6045 14.9513 77.8019 14.9736C76.9187 14.9718 76.1764 15.2201 75.575 15.7183Z" fill="black" fill-opacity="0.2"/>
<path d="M84.7079 20.0282H74.5241C74.687 20.8263 75.1531 21.5309 75.8252 21.995C76.51 22.4776 77.3607 22.7184 78.3774 22.7175C79.013 22.7289 79.6452 22.6231 80.2422 22.4054C80.8081 22.1828 81.3229 21.8483 81.7554 21.422L83.8322 23.6642C82.5653 25.1083 80.7137 25.8303 78.2773 25.8303C76.7602 25.8303 75.4174 25.5357 74.2488 24.9466C73.1315 24.4016 72.1938 23.5499 71.5465 22.492C70.9043 21.415 70.5752 20.1817 70.5956 18.9295C70.5784 17.6833 70.9031 16.4561 71.5346 15.38C72.1485 14.3371 73.0405 13.4838 74.1119 12.915C75.2307 12.3405 76.4702 12.0377 77.729 12.0314C78.9878 12.025 80.2303 12.3152 81.355 12.8783C82.4103 13.431 83.2835 14.2745 83.8704 15.3079C84.4788 16.3621 84.783 17.5859 84.783 18.9793C84.783 19.0309 84.758 19.3805 84.7079 20.0282ZM75.575 15.7183C74.9744 16.2166 74.6075 16.8975 74.474 17.7612H81.1048C81.0026 16.973 80.6103 16.2507 80.0038 15.7341C79.3875 15.2217 78.6045 14.9513 77.8019 14.9736C76.9187 14.9718 76.1764 15.2201 75.575 15.7183Z" fill="black" fill-opacity="0.2"/>
<path d="M101.098 7.14844V25.6364H97.3694V24.0891C96.4037 25.2526 95.0024 25.8339 93.1657 25.833C91.965 25.85 90.7802 25.5583 89.7259 24.986C88.7066 24.4261 87.8695 23.5876 87.3133 22.5695C86.7294 21.5205 86.4375 20.3081 86.4375 18.9322C86.4375 17.5563 86.7294 16.3439 87.3133 15.2949C87.8702 14.2764 88.7083 13.4379 89.7285 12.8784C90.7832 12.307 91.9678 12.0153 93.1684 12.0313C94.8865 12.0313 96.2294 12.5711 97.1969 13.6507V7.14844H101.098ZM96.2935 21.6346C96.944 20.9632 97.2693 20.0624 97.2693 18.9322C97.2693 17.8019 96.944 16.9007 96.2935 16.2285C95.9784 15.8989 95.5973 15.6389 95.1749 15.4652C94.7525 15.2915 94.2982 15.208 93.8413 15.2202C92.8405 15.2202 92.0147 15.5563 91.3642 16.2285C90.7136 16.9007 90.3883 17.8019 90.3883 18.9322C90.3883 20.0624 90.7136 20.9632 91.3642 21.6346C92.0147 22.3059 92.8405 22.6425 93.8413 22.6442C94.2983 22.6565 94.7528 22.5729 95.1752 22.399C95.5977 22.225 95.9787 21.9646 96.2935 21.6346Z" fill="#1D1D1F"/>
<path d="M101.098 7.14844V25.6364H97.3694V24.0891C96.4037 25.2526 95.0024 25.8339 93.1657 25.833C91.965 25.85 90.7802 25.5583 89.7259 24.986C88.7066 24.4261 87.8695 23.5876 87.3133 22.5695C86.7294 21.5205 86.4375 20.3081 86.4375 18.9322C86.4375 17.5563 86.7294 16.3439 87.3133 15.2949C87.8702 14.2764 88.7083 13.4379 89.7285 12.8784C90.7832 12.307 91.9678 12.0153 93.1684 12.0313C94.8865 12.0313 96.2294 12.5711 97.1969 13.6507V7.14844H101.098ZM96.2935 21.6346C96.944 20.9632 97.2693 20.0624 97.2693 18.9322C97.2693 17.8019 96.944 16.9007 96.2935 16.2285C95.9784 15.8989 95.5973 15.6389 95.1749 15.4652C94.7525 15.2915 94.2982 15.208 93.8413 15.2202C92.8405 15.2202 92.0147 15.5563 91.3642 16.2285C90.7136 16.9007 90.3883 17.8019 90.3883 18.9322C90.3883 20.0624 90.7136 20.9632 91.3642 21.6346C92.0147 22.3059 92.8405 22.6425 93.8413 22.6442C94.2983 22.6565 94.7528 22.5729 95.1752 22.399C95.5977 22.225 95.9787 21.9646 96.2935 21.6346Z" fill="black" fill-opacity="0.2"/>
<path d="M101.098 7.14844V25.6364H97.3694V24.0891C96.4037 25.2526 95.0024 25.8339 93.1657 25.833C91.965 25.85 90.7802 25.5583 89.7259 24.986C88.7066 24.4261 87.8695 23.5876 87.3133 22.5695C86.7294 21.5205 86.4375 20.3081 86.4375 18.9322C86.4375 17.5563 86.7294 16.3439 87.3133 15.2949C87.8702 14.2764 88.7083 13.4379 89.7285 12.8784C90.7832 12.307 91.9678 12.0153 93.1684 12.0313C94.8865 12.0313 96.2294 12.5711 97.1969 13.6507V7.14844H101.098ZM96.2935 21.6346C96.944 20.9632 97.2693 20.0624 97.2693 18.9322C97.2693 17.8019 96.944 16.9007 96.2935 16.2285C95.9784 15.8989 95.5973 15.6389 95.1749 15.4652C94.7525 15.2915 94.2982 15.208 93.8413 15.2202C92.8405 15.2202 92.0147 15.5563 91.3642 16.2285C90.7136 16.9007 90.3883 17.8019 90.3883 18.9322C90.3883 20.0624 90.7136 20.9632 91.3642 21.6346C92.0147 22.3059 92.8405 22.6425 93.8413 22.6442C94.2983 22.6565 94.7528 22.5729 95.1752 22.399C95.5977 22.225 95.9787 21.9646 96.2935 21.6346Z" fill="black" fill-opacity="0.2"/>
<path d="M104.901 9.73933C104.688 9.54189 104.518 9.30283 104.402 9.03708C104.286 8.77133 104.226 8.48459 104.226 8.19473C104.226 7.90487 104.286 7.61813 104.402 7.35238C104.518 7.08663 104.688 6.84758 104.901 6.65014C105.352 6.23755 105.935 6.03125 106.653 6.03125C107.37 6.03125 107.954 6.23055 108.404 6.62916C108.621 6.81309 108.794 7.04255 108.911 7.30102C109.027 7.55949 109.085 7.84054 109.08 8.12393C109.088 8.42427 109.032 8.72296 108.916 9.00014C108.799 9.27731 108.625 9.52661 108.404 9.73146C107.952 10.1493 107.368 10.3582 106.653 10.3582C105.937 10.3582 105.353 10.1519 104.901 9.73933ZM104.701 12.2306H108.604V25.6337H104.697L104.701 12.2306Z" fill="#1D1D1F"/>
<path d="M104.901 9.73933C104.688 9.54189 104.518 9.30283 104.402 9.03708C104.286 8.77133 104.226 8.48459 104.226 8.19473C104.226 7.90487 104.286 7.61813 104.402 7.35238C104.518 7.08663 104.688 6.84758 104.901 6.65014C105.352 6.23755 105.935 6.03125 106.653 6.03125C107.37 6.03125 107.954 6.23055 108.404 6.62916C108.621 6.81309 108.794 7.04255 108.911 7.30102C109.027 7.55949 109.085 7.84054 109.08 8.12393C109.088 8.42427 109.032 8.72296 108.916 9.00014C108.799 9.27731 108.625 9.52661 108.404 9.73146C107.952 10.1493 107.368 10.3582 106.653 10.3582C105.937 10.3582 105.353 10.1519 104.901 9.73933ZM104.701 12.2306H108.604V25.6337H104.697L104.701 12.2306Z" fill="black" fill-opacity="0.2"/>
<path d="M104.901 9.73933C104.688 9.54189 104.518 9.30283 104.402 9.03708C104.286 8.77133 104.226 8.48459 104.226 8.19473C104.226 7.90487 104.286 7.61813 104.402 7.35238C104.518 7.08663 104.688 6.84758 104.901 6.65014C105.352 6.23755 105.935 6.03125 106.653 6.03125C107.37 6.03125 107.954 6.23055 108.404 6.62916C108.621 6.81309 108.794 7.04255 108.911 7.30102C109.027 7.55949 109.085 7.84054 109.08 8.12393C109.088 8.42427 109.032 8.72296 108.916 9.00014C108.799 9.27731 108.625 9.52661 108.404 9.73146C107.952 10.1493 107.368 10.3582 106.653 10.3582C105.937 10.3582 105.353 10.1519 104.901 9.73933ZM104.701 12.2306H108.604V25.6337H104.697L104.701 12.2306Z" fill="black" fill-opacity="0.2"/>
<path d="M120.915 24.9856C120.489 25.2868 120.009 25.5027 119.5 25.6215C118.923 25.7636 118.329 25.8336 117.734 25.83C116.133 25.83 114.894 25.4231 114.018 24.6093C113.142 23.7955 112.703 22.5997 112.701 21.0218V15.5148H110.631V12.5292H112.708V9.26562H116.611V12.5292H119.964V15.5187H116.611V20.9786C116.611 21.5441 116.757 21.9812 117.048 22.2898C117.34 22.5983 117.753 22.7518 118.288 22.75C118.856 22.7675 119.413 22.5918 119.868 22.2518L120.915 24.9856Z" fill="#1D1D1F"/>
<path d="M120.915 24.9856C120.489 25.2868 120.009 25.5027 119.5 25.6215C118.923 25.7636 118.329 25.8336 117.734 25.83C116.133 25.83 114.894 25.4231 114.018 24.6093C113.142 23.7955 112.703 22.5997 112.701 21.0218V15.5148H110.631V12.5292H112.708V9.26562H116.611V12.5292H119.964V15.5187H116.611V20.9786C116.611 21.5441 116.757 21.9812 117.048 22.2898C117.34 22.5983 117.753 22.7518 118.288 22.75C118.856 22.7675 119.413 22.5918 119.868 22.2518L120.915 24.9856Z" fill="black" fill-opacity="0.2"/>
<path d="M120.915 24.9856C120.489 25.2868 120.009 25.5027 119.5 25.6215C118.923 25.7636 118.329 25.8336 117.734 25.83C116.133 25.83 114.894 25.4231 114.018 24.6093C113.142 23.7955 112.703 22.5997 112.701 21.0218V15.5148H110.631V12.5292H112.708V9.26562H116.611V12.5292H119.964V15.5187H116.611V20.9786C116.611 21.5441 116.757 21.9812 117.048 22.2898C117.34 22.5983 117.753 22.7518 118.288 22.75C118.856 22.7675 119.413 22.5918 119.868 22.2518L120.915 24.9856Z" fill="black" fill-opacity="0.2"/>
<path d="M124.368 25.4212C123.301 25.1476 122.45 24.8032 121.817 24.388L123.119 21.5978C123.794 22.0131 124.528 22.3277 125.295 22.5313C126.109 22.7672 126.951 22.889 127.798 22.8932C129.449 22.8932 130.275 22.4863 130.275 21.6725C130.275 21.2914 130.05 21.0173 129.599 20.8504C129.149 20.6834 128.457 20.5422 127.522 20.4269C126.601 20.2999 125.689 20.1084 124.795 19.8539C124.083 19.6419 123.44 19.2466 122.93 18.7079C122.403 18.1598 122.14 17.3792 122.14 16.3661C122.129 15.5542 122.388 14.7616 122.878 14.1121C123.37 13.4556 124.087 12.9447 125.029 12.5793C125.971 12.2139 127.085 12.0312 128.37 12.0312C129.325 12.0317 130.278 12.1359 131.21 12.342C132.03 12.505 132.82 12.7953 133.55 13.2022L132.249 15.9675C131.066 15.3039 129.728 14.9604 128.37 14.971C127.536 14.971 126.91 15.0872 126.494 15.3197C126.078 15.5523 125.869 15.8512 125.868 16.2166C125.868 16.6318 126.093 16.9225 126.544 17.0885C126.994 17.2546 127.712 17.4124 128.696 17.5619C129.607 17.7034 130.51 17.8987 131.398 18.1467C132.098 18.3547 132.729 18.7465 133.225 19.2809C133.741 19.829 134 20.5929 134 21.5729C134.01 22.3753 133.745 23.1571 133.25 23.7901C132.749 24.4378 132.019 24.94 131.06 25.2967C130.1 25.6533 128.962 25.8312 127.646 25.8303C126.541 25.8325 125.439 25.6951 124.368 25.4212Z" fill="#1D1D1F"/>
<path d="M124.368 25.4212C123.301 25.1476 122.45 24.8032 121.817 24.388L123.119 21.5978C123.794 22.0131 124.528 22.3277 125.295 22.5313C126.109 22.7672 126.951 22.889 127.798 22.8932C129.449 22.8932 130.275 22.4863 130.275 21.6725C130.275 21.2914 130.05 21.0173 129.599 20.8504C129.149 20.6834 128.457 20.5422 127.522 20.4269C126.601 20.2999 125.689 20.1084 124.795 19.8539C124.083 19.6419 123.44 19.2466 122.93 18.7079C122.403 18.1598 122.14 17.3792 122.14 16.3661C122.129 15.5542 122.388 14.7616 122.878 14.1121C123.37 13.4556 124.087 12.9447 125.029 12.5793C125.971 12.2139 127.085 12.0312 128.37 12.0312C129.325 12.0317 130.278 12.1359 131.21 12.342C132.03 12.505 132.82 12.7953 133.55 13.2022L132.249 15.9675C131.066 15.3039 129.728 14.9604 128.37 14.971C127.536 14.971 126.91 15.0872 126.494 15.3197C126.078 15.5523 125.869 15.8512 125.868 16.2166C125.868 16.6318 126.093 16.9225 126.544 17.0885C126.994 17.2546 127.712 17.4124 128.696 17.5619C129.607 17.7034 130.51 17.8987 131.398 18.1467C132.098 18.3547 132.729 18.7465 133.225 19.2809C133.741 19.829 134 20.5929 134 21.5729C134.01 22.3753 133.745 23.1571 133.25 23.7901C132.749 24.4378 132.019 24.94 131.06 25.2967C130.1 25.6533 128.962 25.8312 127.646 25.8303C126.541 25.8325 125.439 25.6951 124.368 25.4212Z" fill="black" fill-opacity="0.2"/>
<path d="M124.368 25.4212C123.301 25.1476 122.45 24.8032 121.817 24.388L123.119 21.5978C123.794 22.0131 124.528 22.3277 125.295 22.5313C126.109 22.7672 126.951 22.889 127.798 22.8932C129.449 22.8932 130.275 22.4863 130.275 21.6725C130.275 21.2914 130.05 21.0173 129.599 20.8504C129.149 20.6834 128.457 20.5422 127.522 20.4269C126.601 20.2999 125.689 20.1084 124.795 19.8539C124.083 19.6419 123.44 19.2466 122.93 18.7079C122.403 18.1598 122.14 17.3792 122.14 16.3661C122.129 15.5542 122.388 14.7616 122.878 14.1121C123.37 13.4556 124.087 12.9447 125.029 12.5793C125.971 12.2139 127.085 12.0312 128.37 12.0312C129.325 12.0317 130.278 12.1359 131.21 12.342C132.03 12.505 132.82 12.7953 133.55 13.2022L132.249 15.9675C131.066 15.3039 129.728 14.9604 128.37 14.971C127.536 14.971 126.91 15.0872 126.494 15.3197C126.078 15.5523 125.869 15.8512 125.868 16.2166C125.868 16.6318 126.093 16.9225 126.544 17.0885C126.994 17.2546 127.712 17.4124 128.696 17.5619C129.607 17.7034 130.51 17.8987 131.398 18.1467C132.098 18.3547 132.729 18.7465 133.225 19.2809C133.741 19.829 134 20.5929 134 21.5729C134.01 22.3753 133.745 23.1571 133.25 23.7901C132.749 24.4378 132.019 24.94 131.06 25.2967C130.1 25.6533 128.962 25.8312 127.646 25.8303C126.541 25.8325 125.439 25.6951 124.368 25.4212Z" fill="black" fill-opacity="0.2"/>
<defs>
<radialGradient id="paint0_radial_157_235" cx="0" cy="0" r="1" gradientUnits="userSpaceOnUse" gradientTransform="translate(19.7584 18.375) rotate(34.8746) scale(19.9909 16.5615)">
<stop stop-color="#2169FC"/>
<stop offset="0.68" stop-color="#2B4FAF"/>
<stop offset="1" stop-color="#1A3899"/>
</radialGradient>
<linearGradient id="paint1_linear_157_235" x1="20.2654" y1="20.1763" x2="0.297289" y2="0.12085" gradientUnits="userSpaceOnUse">
<stop stop-color="white"/>
<stop offset="0.36" stop-color="#D8D9FF"/>
<stop offset="1" stop-color="#9495FF"/>
</linearGradient>
</defs>
</svg>
