<svg width="25" height="24" viewBox="0 0 25 24" fill="none" xmlns="http://www.w3.org/2000/svg">
<g clip-path="url(#clip0_45_1072)">
<path d="M23.3372 5.34C22.684 4.182 21.9751 3.969 20.5316 3.888C19.0897 3.7905 15.4638 3.75 12.3225 3.75C9.17527 3.75 5.54785 3.7905 4.10742 3.8865C2.667 3.969 1.95656 4.1805 1.29731 5.34C0.624505 6.4965 0.27832 8.4885 0.27832 11.9955C0.27832 11.9985 0.27832 12 0.27832 12C0.27832 12.003 0.27832 12.0045 0.27832 12.0045V12.0075C0.27832 15.4995 0.624505 17.5065 1.29731 18.651C1.95656 19.809 2.66549 20.019 4.10592 20.1165C5.54785 20.2005 9.17527 20.25 12.3225 20.25C15.4638 20.25 19.0897 20.2005 20.5331 20.118C21.9766 20.0205 22.6855 19.8105 23.3387 18.6525C24.0176 17.508 24.3607 15.501 24.3607 12.009C24.3607 12.009 24.3607 12.0045 24.3607 12.0015C24.3607 12.0015 24.3607 11.9985 24.3607 11.997C24.3607 8.4885 24.0176 6.4965 23.3372 5.34ZM9.30923 16.5V7.5L16.835 12L9.30923 16.5Z" fill="#4F4F4F"/>
</g>
<defs>
<clipPath id="clip0_45_1072">
<rect width="24.0824" height="24" fill="white" transform="translate(0.27832)"/>
</clipPath>
</defs>
</svg>
