<svg width="25" height="24" viewBox="0 0 25 24" fill="none" xmlns="http://www.w3.org/2000/svg">
<g clip-path="url(#clip0_45_1103)">
<path d="M17.5635 0H6.51888C2.92431 0 0 2.9143 0 6.49657V17.5036C0 21.0857 2.92431 24 6.51888 24H17.5637C21.1581 24 24.0824 21.0857 24.0824 17.5036V6.49657C24.0824 2.9143 21.1581 0 17.5635 0V0ZM12.0412 18.5623C8.41024 18.5623 5.45635 15.6185 5.45635 12C5.45635 8.38145 8.41024 5.43767 12.0412 5.43767C15.6721 5.43767 18.626 8.38145 18.626 12C18.626 15.6185 15.6721 18.5623 12.0412 18.5623ZM18.7835 6.98528C17.7105 6.98528 16.8377 6.11553 16.8377 5.04619C16.8377 3.97686 17.7105 3.10693 18.7835 3.10693C19.8565 3.10693 20.7294 3.97686 20.7294 5.04619C20.7294 6.11553 19.8565 6.98528 18.7835 6.98528Z" fill="#4F4F4F"/>
<path d="M12.0412 6.8457C9.18891 6.8457 6.86816 9.15832 6.86816 12.001C6.86816 14.8436 9.18891 17.1564 12.0412 17.1564C14.8937 17.1564 17.2142 14.8436 17.2142 12.001C17.2142 9.15832 14.8937 6.8457 12.0412 6.8457Z" fill="#4F4F4F"/>
</g>
<defs>
<clipPath id="clip0_45_1103">
<rect width="24.0824" height="24" fill="white"/>
</clipPath>
</defs>
</svg>
