<svg width="25" height="24" viewBox="0 0 25 24" fill="none" xmlns="http://www.w3.org/2000/svg">
<g clip-path="url(#clip0_45_1096)">
<path d="M21.3504 0H3.28862C1.62844 0 0.27832 1.3455 0.27832 3V21C0.27832 22.6545 1.62844 24 3.28862 24H12.3195V15.75H9.30923V12H12.3195V9C12.3195 6.5145 14.3409 4.5 16.835 4.5H19.8453V8.25H18.3401C17.5093 8.25 16.835 8.172 16.835 9V12H20.5979L19.0927 15.75H16.835V24H21.3504C23.0106 24 24.3607 22.6545 24.3607 21V3C24.3607 1.3455 23.0106 0 21.3504 0Z" fill="#4F4F4F"/>
</g>
<defs>
<clipPath id="clip0_45_1096">
<rect width="24.0824" height="24" fill="white" transform="translate(0.27832)"/>
</clipPath>
</defs>
</svg>
