<svg width="25" height="24" viewBox="0 0 25 24" fill="none" xmlns="http://www.w3.org/2000/svg">
<g clip-path="url(#clip0_45_1069)">
<path d="M9.41992 17.6113V22.2493C9.41992 22.5733 9.62864 22.8603 9.93769 22.9623C10.015 22.9873 10.0942 22.9993 10.1725 22.9993C10.4073 22.9993 10.6341 22.8893 10.7786 22.6933L13.5009 19.0013L9.41992 17.6113Z" fill="#4F4F4F"/>
<path d="M24.406 0.139089C24.1752 -0.0239114 23.8722 -0.0459114 23.6213 0.0850886L1.04408 11.8351C0.777164 11.9741 0.619624 12.2581 0.6417 12.5571C0.664779 12.8571 0.864462 13.1131 1.14843 13.2101L7.42492 15.3481L20.7917 3.95809L10.4483 16.3771L20.9673 19.9601C21.0455 19.9861 21.1278 20.0001 21.2101 20.0001C21.3466 20.0001 21.482 19.9631 21.6014 19.8911C21.7921 19.7751 21.9215 19.5801 21.9546 19.3611L24.7141 0.861089C24.7552 0.581089 24.6368 0.303089 24.406 0.139089Z" fill="#4F4F4F"/>
</g>
<defs>
<clipPath id="clip0_45_1069">
<rect width="24.0824" height="24" fill="white" transform="translate(0.639648)"/>
</clipPath>
</defs>
</svg>
