<svg width="25" height="24" viewBox="0 0 25 24" fill="none" xmlns="http://www.w3.org/2000/svg">
<g clip-path="url(#clip0_45_1100)">
<path d="M20.9741 12.591C20.4146 11.87 19.5703 11.3748 18.4413 11.1056C19.879 10.3748 20.5109 9.13434 20.3374 7.38413C20.2794 6.74947 20.1034 6.19942 19.809 5.73319C19.5144 5.26685 19.1168 4.89195 18.6147 4.60834C18.1131 4.32438 17.5675 4.10821 16.9792 3.95918C16.3908 3.81015 15.7152 3.70194 14.9529 3.6347V0H12.7243V3.53371C12.3384 3.53371 11.7499 3.54331 10.9588 3.56256V0H8.72986V3.6347C8.41136 3.64435 7.94347 3.64925 7.32599 3.64925L4.25781 3.6347V6.00018H5.86419C6.5975 6.00018 7.02686 6.32718 7.15227 6.98094V11.1205C7.24889 11.1205 7.32599 11.1255 7.38393 11.1351H7.15227V16.933C7.07517 17.4233 6.7954 17.6687 6.31291 17.6687H4.70664L4.25791 20.3082H7.15252C7.33588 20.3082 7.60105 20.3106 7.94854 20.315C8.29583 20.3198 8.55624 20.3223 8.72996 20.3223V24.0002H10.9592V20.3655C11.3644 20.3754 11.9529 20.3801 12.7248 20.3801V24.0002H14.9535V20.3223C15.7448 20.2839 16.4467 20.2121 17.0591 20.106C17.6718 19.9999 18.2581 19.8343 18.8176 19.6081C19.377 19.3823 19.8449 19.1009 20.2212 18.7643C20.5976 18.4281 20.9085 18 21.155 17.4806C21.4006 16.9613 21.5576 16.3603 21.6249 15.6775C21.7509 14.3413 21.5337 13.3123 20.9741 12.591ZM11.0021 6.1584C11.0697 6.1584 11.2602 6.15598 11.5738 6.15113C11.8876 6.14618 12.148 6.14143 12.3554 6.13658C12.5629 6.13183 12.8427 6.14385 13.195 6.1727C13.5472 6.20154 13.8438 6.24009 14.085 6.28808C14.3261 6.33607 14.5917 6.41544 14.8809 6.52602C15.1706 6.63651 15.402 6.77119 15.5754 6.92982C15.7493 7.08845 15.8964 7.29047 16.0168 7.53569C16.1375 7.78085 16.1978 8.06209 16.1978 8.37934C16.1978 8.64861 16.1545 8.89387 16.0678 9.11515C15.9812 9.33626 15.8506 9.52141 15.6771 9.67044C15.5036 9.81952 15.3248 9.94946 15.1414 10.0599C14.9583 10.1704 14.7241 10.2594 14.4395 10.3267C14.1551 10.394 13.9066 10.4469 13.6945 10.4853C13.4822 10.5238 13.2169 10.5503 12.8985 10.5647C12.58 10.579 12.3387 10.5888 12.1747 10.5936C12.0106 10.5983 11.7864 10.5983 11.5016 10.5936C11.2169 10.5888 11.0506 10.5863 11.0023 10.5863V6.15835H11.0021V6.1584ZM17.0882 15.9806C16.9963 16.2018 16.8783 16.3942 16.7337 16.5578C16.5888 16.721 16.3981 16.8654 16.1618 16.9902C15.9256 17.1154 15.6962 17.2162 15.4745 17.2931C15.2525 17.3704 14.9846 17.4373 14.6714 17.4952C14.3574 17.5529 14.0826 17.5936 13.8459 17.6178C13.6097 17.6419 13.3276 17.661 12.9994 17.6755C12.6715 17.6897 12.4156 17.697 12.2324 17.697C12.049 17.697 11.8174 17.6944 11.5376 17.6897C11.2576 17.6852 11.0793 17.6828 11.002 17.6828V12.8075C11.0791 12.8075 11.3083 12.8028 11.6895 12.793C12.0708 12.7833 12.3818 12.7788 12.623 12.7788C12.8642 12.7788 13.1972 12.793 13.6219 12.822C14.0462 12.8507 14.4032 12.8938 14.6929 12.9515C14.9822 13.0093 15.298 13.0981 15.6408 13.2184C15.9832 13.3385 16.2608 13.4851 16.4731 13.6582C16.6854 13.8316 16.8638 14.0524 17.0085 14.3217C17.1535 14.5909 17.2258 14.8986 17.2258 15.2449C17.2258 15.5144 17.18 15.7592 17.0882 15.9806Z" fill="#4F4F4F"/>
</g>
<defs>
<clipPath id="clip0_45_1100">
<rect width="24.0824" height="24" fill="white" transform="translate(0.917969)"/>
</clipPath>
</defs>
</svg>
