<svg width="25" height="24" viewBox="0 0 25 24" fill="none" xmlns="http://www.w3.org/2000/svg">
<g clip-path="url(#clip0_45_1065)">
<path d="M24.0824 4.5585C23.1869 4.95 22.2326 5.2095 21.2377 5.3355C22.2612 4.7265 23.0424 3.7695 23.4096 2.616C22.4554 3.183 21.4017 3.5835 20.2789 3.807C19.3728 2.8455 18.0814 2.25 16.6726 2.25C13.9392 2.25 11.7387 4.461 11.7387 7.1715C11.7387 7.5615 11.7718 7.9365 11.8531 8.2935C7.74852 8.094 4.11659 6.1335 1.67674 3.147C1.25078 3.8835 1.00093 4.7265 1.00093 5.634C1.00093 7.338 1.88144 8.8485 3.19393 9.723C2.40072 9.708 1.62255 9.4785 0.963297 9.117C0.963297 9.132 0.963297 9.1515 0.963297 9.171C0.963297 11.562 2.67465 13.548 4.91883 14.0055C4.51696 14.115 4.07896 14.1675 3.6244 14.1675C3.30832 14.1675 2.98923 14.1495 2.68971 14.0835C3.32939 16.032 5.14461 17.4645 7.30299 17.511C5.62325 18.8205 3.49045 19.6095 1.18154 19.6095C0.776658 19.6095 0.388329 19.5915 0 19.542C2.18698 20.9475 4.77886 21.75 7.57392 21.75C16.659 21.75 21.626 14.25 21.626 7.749C21.626 7.5315 21.6185 7.3215 21.608 7.113C22.5878 6.42 23.4111 5.5545 24.0824 4.5585Z" fill="#4F4F4F"/>
</g>
<defs>
<clipPath id="clip0_45_1065">
<rect width="24.0824" height="24" fill="white"/>
</clipPath>
</defs>
</svg>
