<svg width="25" height="24" viewBox="0 0 25 24" fill="none" xmlns="http://www.w3.org/2000/svg">
<g clip-path="url(#clip0_45_1086)">
<path d="M6.02508 7.5H0.639648V24H6.02508V7.5Z" fill="#4F4F4F"/>
<path d="M20.6939 7.6935C20.6367 7.6755 20.5825 7.656 20.5223 7.6395C20.4501 7.623 20.3778 7.6095 20.3041 7.5975C20.0181 7.5405 19.705 7.5 19.3378 7.5C16.198 7.5 14.2067 9.7755 13.5505 10.6545V7.5H8.16504V24H13.5505V15C13.5505 15 17.6204 9.351 19.3378 13.5C19.3378 17.2035 19.3378 24 19.3378 24H24.7217V12.8655C24.7217 10.3725 23.0073 8.295 20.6939 7.6935Z" fill="#4F4F4F"/>
<path d="M3.27366 5.25C4.72839 5.25 5.90768 4.07475 5.90768 2.625C5.90768 1.17525 4.72839 0 3.27366 0C1.81894 0 0.639648 1.17525 0.639648 2.625C0.639648 4.07475 1.81894 5.25 3.27366 5.25Z" fill="#4F4F4F"/>
</g>
<defs>
<clipPath id="clip0_45_1086">
<rect width="24.0824" height="24" fill="white" transform="translate(0.639648)"/>
</clipPath>
</defs>
</svg>
