<svg width="25" height="24" viewBox="0 0 25 24" fill="none" xmlns="http://www.w3.org/2000/svg">
<g clip-path="url(#clip0_45_1076)">
<path d="M9.16016 13.4922V13.4937H9.90945L9.16016 13.4922Z" fill="#4F4F4F"/>
<path d="M16.6533 13.4922V13.4937H17.4026L16.6533 13.4922Z" fill="#4F4F4F"/>
<path d="M25.0004 11.2538C25.0004 9.60654 23.6562 8.26691 22.0032 8.26691C21.3423 8.26691 20.7144 8.48197 20.2019 8.87176C18.5295 7.71432 16.3385 7.02434 14.0082 6.84961L15.2655 3.91047L18.9236 4.76174C19.0405 5.88931 19.9876 6.77344 21.149 6.77344C22.3883 6.77344 23.3969 5.76834 23.3969 4.53324C23.3969 3.29814 22.3883 2.29304 21.149 2.29304C20.3637 2.29304 19.6729 2.69777 19.2713 3.3086L14.9958 2.31246C14.6331 2.23032 14.2779 2.41401 14.1341 2.74706L12.3957 6.80928C9.87957 6.8959 7.48181 7.60231 5.67151 8.83293C5.17847 8.46852 4.56705 8.26691 3.91516 8.26691C2.26221 8.26691 0.917969 9.60654 0.917969 11.2538C0.917969 12.3456 1.51591 13.3327 2.43305 13.839C2.42106 13.9705 2.41656 14.1049 2.41656 14.2408C2.41656 18.3583 7.12215 21.7081 12.9067 21.7081C18.6898 21.7081 23.3969 18.3583 23.3969 14.2408C23.3969 14.1243 23.3924 14.0093 23.3849 13.8943C24.362 13.3985 25.0004 12.3874 25.0004 11.2538ZM21.149 3.78651C21.5611 3.78651 21.8983 4.12104 21.8983 4.53324C21.8983 4.94544 21.5611 5.27997 21.149 5.27997C20.7369 5.27997 20.3997 4.94544 20.3997 4.53324C20.3997 4.12104 20.7369 3.78651 21.149 3.78651ZM7.66165 13.494C7.66165 12.6711 8.33452 12.0006 9.16024 12.0006C9.98597 12.0006 10.6588 12.6711 10.6588 13.494C10.6588 14.3184 9.98597 14.9875 9.16024 14.9875C8.33452 14.9875 7.66165 14.3184 7.66165 13.494ZM16.367 18.4479C15.333 19.1931 14.1191 19.5665 12.9067 19.5665C11.6944 19.5665 10.4805 19.1931 9.44647 18.4479C9.11079 18.2059 9.03586 17.7385 9.27863 17.4054C9.5214 17.0724 9.99046 16.9977 10.3246 17.2382C11.8697 18.3508 13.9438 18.3538 15.4888 17.2382C15.823 16.9977 16.2906 17.0694 16.5348 17.4054C16.7776 17.74 16.7012 18.2059 16.367 18.4479ZM16.6532 14.9875C15.826 14.9875 15.1546 14.3184 15.1546 13.494C15.1546 12.6711 15.826 12.0006 16.6532 12.0006C17.4804 12.0006 18.1518 12.6711 18.1518 13.494C18.1518 14.3184 17.4804 14.9875 16.6532 14.9875Z" fill="#4F4F4F"/>
</g>
<defs>
<clipPath id="clip0_45_1076">
<rect width="24.0824" height="24" fill="white" transform="translate(0.917969)"/>
</clipPath>
</defs>
</svg>
